<svg xmlns="http://www.w3.org/2000/svg" xmlns:xlink="http://www.w3.org/1999/xlink" width="500" zoomAndPan="magnify" viewBox="0 0 375 374.999991" height="500" preserveAspectRatio="xMidYMid meet" version="1.0"><defs><g/><clipPath id="id1"><path d="M 122 119 L 308.503906 119 L 308.503906 242.25 L 122 242.25 Z M 122 119 " clip-rule="nonzero"/></clipPath><clipPath id="id2"><path d="M 66.253906 0 L 303 0 L 303 212 L 66.253906 212 Z M 66.253906 0 " clip-rule="nonzero"/></clipPath></defs><g clip-path="url(#id1)"><path fill="#4b9636" d="M 299.386719 122.738281 C 289.632812 118.554688 278.613281 118.320312 268.738281 122.210938 C 268.679688 122.234375 268.617188 122.257812 268.558594 122.28125 C 262.050781 124.863281 256.507812 128.90625 251.367188 133.511719 C 246.253906 138.085938 240.300781 141.628906 233.847656 143.957031 L 239.914062 144.746094 C 236.988281 147.710938 234.042969 150.628906 230.957031 153.300781 L 230.871094 153.378906 C 225.675781 157.867188 219.554688 161.152344 212.941406 162.988281 C 209.503906 163.945312 206.84375 164.742188 206.84375 164.742188 L 214.167969 166.113281 C 209.375 169.28125 204.394531 172.160156 199.253906 174.644531 C 199.214844 174.664062 199.175781 174.683594 199.136719 174.703125 C 192.425781 177.941406 184.824219 178.84375 177.523438 177.359375 C 175.457031 176.941406 174.066406 176.675781 174.066406 176.675781 L 180.246094 181.511719 C 175.28125 182.671875 170.210938 183.335938 165.085938 183.359375 C 163.816406 183.363281 159.785156 182.898438 154.871094 182.074219 C 150.382812 187.71875 144.769531 194.773438 138.347656 202.851562 L 125.644531 218.828125 C 124.535156 220.222656 123.40625 221.640625 122.269531 223.074219 L 139.84375 209.929688 C 145.792969 213.117188 152.125 215.734375 158.773438 217.695312 L 162.09375 239.726562 C 165.320312 240.410156 168.597656 240.972656 171.929688 241.398438 C 175.261719 241.828125 178.578125 242.113281 181.871094 242.269531 L 190.652344 221.792969 C 197.582031 221.578125 204.371094 220.648438 210.933594 219.070312 L 224.824219 236.496094 C 231.167969 234.433594 237.308594 231.855469 243.179688 228.804688 L 240.527344 206.675781 C 246.328125 203.066406 251.75 198.878906 256.707031 194.183594 L 277.445312 202.34375 C 281.882812 197.4375 285.925781 192.148438 289.53125 186.53125 L 276.183594 168.6875 C 279.375 162.734375 281.988281 156.402344 283.949219 149.757812 L 305.980469 146.4375 C 306.664062 143.210938 307.226562 139.929688 307.65625 136.601562 C 308.082031 133.269531 308.371094 129.953125 308.523438 126.660156 L 299.386719 122.738281 " fill-opacity="1" fill-rule="nonzero"/></g><g clip-path="url(#id2)"><path fill="#63c431" d="M 194.0625 130.628906 C 196.132812 129.671875 198.175781 128.765625 200.179688 127.902344 C 204.222656 126.171875 208.097656 124.628906 211.707031 123.292969 C 215.316406 121.949219 218.65625 120.792969 221.632812 119.816406 C 223.054688 119.351562 224.386719 118.929688 225.632812 118.542969 L 236.21875 115.566406 C 196.996094 120.019531 169.207031 135.4375 152.003906 148.597656 C 149.910156 150.109375 147.859375 151.679688 145.875 153.308594 C 141.824219 156.640625 138.066406 160.253906 134.703125 164.050781 C 134.488281 164.289062 134.28125 164.523438 134.070312 164.757812 C 133.859375 164.996094 133.664062 165.246094 133.460938 165.484375 C 133.058594 165.972656 132.65625 166.453125 132.257812 166.933594 C 131.851562 167.410156 131.484375 167.917969 131.105469 168.40625 C 131 168.542969 130.898438 168.679688 130.796875 168.8125 C 130.636719 169.015625 130.558594 169.128906 130.558594 169.128906 C 130.78125 168.292969 131.050781 167.316406 131.371094 166.21875 C 131.664062 165.230469 131.96875 164.136719 132.367188 162.957031 C 132.757812 161.78125 133.195312 160.511719 133.675781 159.167969 C 134.160156 157.820312 134.671875 156.394531 135.257812 154.90625 C 135.859375 153.425781 136.511719 151.878906 137.207031 150.273438 C 140.527344 142.644531 144.609375 135.171875 149.425781 128.199219 L 151.8125 136.582031 C 151.886719 128.164062 155.148438 120.066406 160.996094 114.015625 C 163.367188 111.558594 165.855469 109.226562 168.457031 107.039062 L 166.542969 114.199219 L 166.859375 113.675781 C 172.308594 104.738281 180.433594 97.734375 190.09375 93.695312 C 190.117188 93.683594 190.144531 93.671875 190.167969 93.660156 C 194.640625 91.847656 199.199219 90.398438 204.0625 89.488281 C 205.789062 89.160156 207.53125 88.886719 209.296875 88.679688 L 203.601562 96.589844 L 206.238281 94.539062 L 203.820312 96.933594 C 216.515625 86.996094 234.996094 90.21875 236.578125 90.59375 L 229.933594 94.785156 L 231.082031 94.460938 C 237.917969 92.519531 245.21875 92.925781 251.769531 95.675781 C 251.808594 95.691406 251.847656 95.707031 251.882812 95.722656 C 263.222656 100.476562 275.152344 107.613281 288.015625 116.917969 C 287.746094 110.320312 286.832031 103.855469 285.324219 97.59375 L 302.75 83.707031 C 300.6875 77.359375 298.109375 71.222656 295.058594 65.351562 L 272.929688 68.003906 C 269.324219 62.203125 265.136719 56.777344 260.4375 51.824219 L 268.601562 31.082031 C 263.691406 26.648438 258.402344 22.601562 252.785156 19 L 234.945312 32.34375 C 228.988281 29.15625 222.660156 26.542969 216.011719 24.582031 L 212.691406 2.550781 C 209.464844 1.863281 206.183594 1.304688 202.855469 0.875 C 199.523438 0.449219 196.210938 0.160156 192.914062 0.0078125 L 184.128906 20.480469 C 177.203125 20.699219 170.414062 21.625 163.847656 23.207031 L 149.960938 5.78125 C 143.617188 7.84375 137.476562 10.421875 131.605469 13.46875 L 134.257812 35.597656 C 128.457031 39.207031 123.035156 43.394531 118.078125 48.09375 L 97.339844 39.929688 C 92.902344 44.839844 88.855469 50.125 85.253906 55.746094 L 98.601562 73.585938 C 95.410156 79.539062 92.796875 85.871094 90.835938 92.519531 L 68.804688 95.839844 C 68.121094 99.0625 67.558594 102.34375 67.128906 105.675781 C 66.703125 109.007812 66.414062 112.320312 66.261719 115.617188 L 86.734375 124.398438 C 86.953125 131.328125 87.878906 138.113281 89.460938 144.679688 L 72.035156 158.570312 C 74.097656 164.914062 76.675781 171.050781 79.726562 176.925781 L 101.855469 174.273438 C 105.460938 180.074219 109.648438 185.496094 114.347656 190.449219 L 106.183594 211.191406 C 106.226562 211.230469 106.269531 211.265625 106.3125 211.304688 L 106.335938 211.277344 L 110.128906 206.503906 L 116.292969 198.75 C 117.414062 197.34375 118.511719 195.957031 119.59375 194.601562 C 140.71875 168.820312 163.988281 145.5625 194.0625 130.628906 " fill-opacity="1" fill-rule="nonzero"/></g><g fill="#33443c" fill-opacity="1"><g transform="translate(43.21106, 299.356807)"><g><path d="M 9.789062 -4.964844 L 27.984375 -31.664062 L 27.984375 -34.464844 L 2.664062 -34.464844 L 2.664062 -29.503906 L 20.359375 -29.503906 L 2.160156 -2.804688 L 2.160156 0 L 28.355469 0 L 28.355469 -4.964844 Z M 9.789062 -4.964844 "/></g></g></g><g fill="#33443c" fill-opacity="1"><g transform="translate(76.206472, 299.356807)"><g><path d="M 4.136719 0 L 9.421875 0 L 9.421875 -34.464844 L 4.136719 -34.464844 Z M 4.136719 0 "/></g></g></g><g fill="#33443c" fill-opacity="1"><g transform="translate(92.014869, 299.356807)"><g><path d="M 9.144531 -4.964844 L 9.144531 -34.464844 L 3.859375 -34.464844 L 3.859375 0 L 21.414062 0 L 21.414062 -4.964844 Z M 9.144531 -4.964844 "/></g></g></g><g fill="#33443c" fill-opacity="1"><g transform="translate(116.049123, 299.356807)"><g><path d="M 9.144531 -4.964844 L 9.144531 -34.464844 L 3.859375 -34.464844 L 3.859375 0 L 21.414062 0 L 21.414062 -4.964844 Z M 9.144531 -4.964844 "/></g></g></g><g fill="#33443c" fill-opacity="1"><g transform="translate(140.083384, 299.356807)"><g><path d="M 24.035156 -29.59375 L 24.035156 -34.464844 L 4.136719 -34.464844 L 4.136719 0 L 24.035156 0 L 24.035156 -4.871094 L 9.421875 -4.871094 L 9.421875 -14.796875 L 22.105469 -14.796875 L 22.105469 -19.667969 L 9.421875 -19.667969 L 9.421875 -29.59375 Z M 24.035156 -29.59375 "/></g></g></g><g fill="#33443c" fill-opacity="1"><g transform="translate(168.48335, 299.356807)"><g/></g></g><g fill="#33443c" fill-opacity="1"><g transform="translate(183.37264, 299.356807)"><g><path d="M 27.710938 0 L 33.453125 0 L 19.621094 -34.464844 L 13.695312 -34.464844 L -0.136719 0 L 5.605469 0 L 8.457031 -7.398438 L 24.863281 -7.398438 Z M 10.292969 -12.132812 L 16.679688 -28.765625 L 23.070312 -12.132812 Z M 10.292969 -12.132812 "/></g></g></g><g fill="#33443c" fill-opacity="1"><g transform="translate(218.987472, 299.356807)"><g><path d="M 20.863281 -19.4375 L 20.863281 -14.476562 L 28.953125 -14.476562 L 28.953125 -8.363281 C 26.699219 -5.972656 23.757812 -4.777344 20.128906 -4.777344 C 16.636719 -4.777344 13.695312 -5.972656 11.351562 -8.363281 C 9.007812 -10.753906 7.859375 -13.695312 7.859375 -17.234375 C 7.859375 -20.726562 9.054688 -23.667969 11.441406 -26.054688 C 13.832031 -28.445312 16.820312 -29.6875 20.3125 -29.6875 C 23.941406 -29.6875 26.976562 -28.355469 29.363281 -25.734375 L 33.316406 -29.179688 C 31.707031 -30.925781 29.734375 -32.304688 27.433594 -33.363281 C 25.089844 -34.375 22.703125 -34.925781 20.3125 -34.925781 C 15.394531 -34.925781 11.210938 -33.179688 7.765625 -29.777344 C 4.320312 -26.332031 2.621094 -22.148438 2.621094 -17.234375 C 2.621094 -12.269531 4.273438 -8.089844 7.675781 -4.6875 C 11.027344 -1.242188 15.164062 0.460938 20.128906 0.460938 C 23.804688 0.460938 26.835938 -0.550781 29.320312 -2.664062 L 29.59375 0 L 34.191406 0 L 34.191406 -19.4375 Z M 20.863281 -19.4375 "/></g></g></g><g fill="#33443c" fill-opacity="1"><g transform="translate(258.738225, 299.356807)"><g><path d="M 19.484375 -15.117188 C 21.691406 -15.53125 23.484375 -16.589844 24.90625 -18.335938 C 26.285156 -20.082031 27.019531 -22.105469 27.019531 -24.449219 C 27.019531 -27.203125 26.054688 -29.59375 24.125 -31.523438 C 22.195312 -33.453125 19.898438 -34.464844 17.140625 -34.464844 L 3.859375 -34.464844 L 3.859375 0 L 9.144531 0 L 9.144531 -14.660156 L 14.015625 -14.660156 L 23.253906 0 L 29.410156 0 Z M 9.144531 -19.347656 L 9.144531 -29.503906 L 16.589844 -29.503906 C 18.058594 -29.503906 19.347656 -28.996094 20.359375 -28.078125 C 21.367188 -27.113281 21.875 -25.871094 21.875 -24.402344 C 21.875 -22.929688 21.367188 -21.691406 20.359375 -20.769531 C 19.347656 -19.804688 18.058594 -19.347656 16.589844 -19.347656 Z M 9.144531 -19.347656 "/></g></g></g><g fill="#33443c" fill-opacity="1"><g transform="translate(291.136222, 299.356807)"><g><path d="M 20.3125 0.460938 C 25.183594 0.460938 29.363281 -1.242188 32.8125 -4.6875 C 36.257812 -8.132812 38.003906 -12.316406 38.003906 -17.234375 C 38.003906 -22.105469 36.257812 -26.285156 32.8125 -29.734375 C 29.363281 -33.179688 25.183594 -34.925781 20.3125 -34.925781 C 15.394531 -34.925781 11.210938 -33.179688 7.765625 -29.734375 C 4.320312 -26.285156 2.621094 -22.105469 2.621094 -17.234375 C 2.621094 -12.316406 4.320312 -8.132812 7.765625 -4.6875 C 11.210938 -1.242188 15.394531 0.460938 20.3125 0.460938 Z M 20.3125 -4.777344 C 16.820312 -4.777344 13.878906 -5.972656 11.488281 -8.363281 C 9.054688 -10.753906 7.859375 -13.742188 7.859375 -17.234375 C 7.859375 -20.726562 9.054688 -23.667969 11.488281 -26.054688 C 13.878906 -28.445312 16.820312 -29.6875 20.3125 -29.6875 C 23.804688 -29.6875 26.746094 -28.445312 29.136719 -26.054688 C 31.523438 -23.667969 32.765625 -20.726562 32.765625 -17.234375 C 32.765625 -13.742188 31.523438 -10.753906 29.136719 -8.363281 C 26.746094 -5.972656 23.804688 -4.777344 20.3125 -4.777344 Z M 20.3125 -4.777344 "/></g></g></g><g fill="#33443c" fill-opacity="1"><g transform="translate(24.316014, 334.999958)"><g><path d="M 6.796875 -1.96875 L 2.390625 -1.96875 L 1.546875 0 L 0.015625 0 L 3.875 -8.75 L 5.390625 -8.75 L 9.21875 0 L 7.640625 0 Z M 6.234375 -3.28125 L 4.59375 -7.171875 L 2.9375 -3.28125 Z M 6.234375 -3.28125 "/></g></g></g><g fill="#33443c" fill-opacity="1"><g transform="translate(38.024898, 334.999958)"><g><path d="M 8.59375 -8.75 L 8.59375 -3.625 C 8.59375 -2.476562 8.253906 -1.578125 7.578125 -0.921875 C 6.898438 -0.265625 5.96875 0.0625 4.78125 0.0625 C 3.601562 0.0625 2.671875 -0.265625 1.984375 -0.921875 C 1.304688 -1.578125 0.96875 -2.476562 0.96875 -3.625 L 0.96875 -8.75 L 2.453125 -8.75 L 2.453125 -3.625 C 2.453125 -2.894531 2.660156 -2.316406 3.078125 -1.890625 C 3.503906 -1.472656 4.078125 -1.265625 4.796875 -1.265625 C 5.515625 -1.265625 6.078125 -1.472656 6.484375 -1.890625 C 6.898438 -2.304688 7.109375 -2.882812 7.109375 -3.625 L 7.109375 -8.75 Z M 8.59375 -8.75 "/></g></g></g><g fill="#33443c" fill-opacity="1"><g transform="translate(52.058652, 334.999958)"><g><path d="M 10.40625 0 L 9.03125 0 L 9.03125 -6.53125 L 6.265625 -0.90625 L 5.296875 -0.90625 L 2.53125 -6.53125 L 2.53125 0 L 1.15625 0 L 1.15625 -8.75 L 2.90625 -8.75 L 5.78125 -2.9375 L 8.65625 -8.75 L 10.40625 -8.75 Z M 10.40625 0 "/></g></g></g><g fill="#33443c" fill-opacity="1"><g transform="translate(68.104117, 334.999958)"><g><path d="M 7.40625 -7.421875 L 2.625 -7.421875 L 2.625 -5.0625 L 6.90625 -5.0625 L 6.90625 -3.734375 L 2.625 -3.734375 L 2.625 -1.328125 L 7.546875 -1.328125 L 7.546875 0 L 1.15625 0 L 1.15625 -8.75 L 7.40625 -8.75 Z M 7.40625 -7.421875 "/></g></g></g><g fill="#33443c" fill-opacity="1"><g transform="translate(80.788412, 334.999958)"><g><path d="M 8.734375 0 L 7.28125 0 L 2.625 -6.28125 L 2.625 0 L 1.15625 0 L 1.15625 -8.75 L 2.59375 -8.75 L 7.28125 -2.46875 L 7.28125 -8.75 L 8.734375 -8.75 Z M 8.734375 0 "/></g></g></g><g fill="#33443c" fill-opacity="1"><g transform="translate(95.172025, 334.999958)"><g><path d="M 7.125 -7.421875 L 4.34375 -7.421875 L 4.34375 0 L 2.875 0 L 2.875 -7.421875 L 0.109375 -7.421875 L 0.109375 -8.75 L 7.125 -8.75 Z M 7.125 -7.421875 "/></g></g></g><g fill="#33443c" fill-opacity="1"><g transform="translate(106.894186, 334.999958)"><g><path d="M 6.796875 -1.96875 L 2.390625 -1.96875 L 1.546875 0 L 0.015625 0 L 3.875 -8.75 L 5.390625 -8.75 L 9.21875 0 L 7.640625 0 Z M 6.234375 -3.28125 L 4.59375 -7.171875 L 2.9375 -3.28125 Z M 6.234375 -3.28125 "/></g></g></g><g fill="#33443c" fill-opacity="1"><g transform="translate(120.60307, 334.999958)"><g><path d="M 8.734375 0 L 7.28125 0 L 2.625 -6.28125 L 2.625 0 L 1.15625 0 L 1.15625 -8.75 L 2.59375 -8.75 L 7.28125 -2.46875 L 7.28125 -8.75 L 8.734375 -8.75 Z M 8.734375 0 "/></g></g></g><g fill="#33443c" fill-opacity="1"><g transform="translate(134.986683, 334.999958)"><g><path d="M 1.15625 -8.75 L 4.734375 -8.75 C 6.046875 -8.75 7.128906 -8.335938 7.984375 -7.515625 C 8.835938 -6.691406 9.265625 -5.644531 9.265625 -4.375 C 9.265625 -3.101562 8.832031 -2.054688 7.96875 -1.234375 C 7.113281 -0.410156 6.023438 0 4.703125 0 L 1.15625 0 Z M 2.625 -7.421875 L 2.625 -1.328125 L 4.78125 -1.328125 C 5.632812 -1.328125 6.347656 -1.609375 6.921875 -2.171875 C 7.492188 -2.742188 7.78125 -3.472656 7.78125 -4.359375 C 7.78125 -5.242188 7.484375 -5.972656 6.890625 -6.546875 C 6.304688 -7.128906 5.582031 -7.421875 4.71875 -7.421875 Z M 2.625 -7.421875 "/></g></g></g><g fill="#33443c" fill-opacity="1"><g transform="translate(149.157887, 334.999958)"><g><path d="M 1.75 -7.515625 C 2.644531 -8.359375 3.75 -8.78125 5.0625 -8.78125 C 6.375 -8.78125 7.472656 -8.359375 8.359375 -7.515625 C 9.253906 -6.671875 9.703125 -5.625 9.703125 -4.375 C 9.703125 -3.125 9.253906 -2.070312 8.359375 -1.21875 C 7.472656 -0.363281 6.375 0.0625 5.0625 0.0625 C 3.75 0.0625 2.644531 -0.363281 1.75 -1.21875 C 0.863281 -2.070312 0.421875 -3.125 0.421875 -4.375 C 0.421875 -5.625 0.863281 -6.671875 1.75 -7.515625 Z M 5.078125 -7.46875 C 4.210938 -7.46875 3.46875 -7.164062 2.84375 -6.5625 C 2.226562 -5.96875 1.921875 -5.238281 1.921875 -4.375 C 1.921875 -3.507812 2.226562 -2.773438 2.84375 -2.171875 C 3.46875 -1.566406 4.207031 -1.265625 5.0625 -1.265625 C 5.925781 -1.265625 6.660156 -1.566406 7.265625 -2.171875 C 7.878906 -2.773438 8.1875 -3.507812 8.1875 -4.375 C 8.1875 -5.238281 7.878906 -5.96875 7.265625 -6.5625 C 6.660156 -7.164062 5.929688 -7.46875 5.078125 -7.46875 Z M 5.078125 -7.46875 "/></g></g></g><g fill="#33443c" fill-opacity="1"><g transform="translate(171.477684, 334.999958)"><g><path d="M 2.625 -1.34375 L 6.40625 -1.34375 L 6.40625 0 L 1.15625 0 L 1.15625 -8.75 L 2.625 -8.75 Z M 2.625 -1.34375 "/></g></g></g><g fill="#33443c" fill-opacity="1"><g transform="translate(182.637575, 334.999958)"><g><path d="M 6.796875 -1.96875 L 2.390625 -1.96875 L 1.546875 0 L 0.015625 0 L 3.875 -8.75 L 5.390625 -8.75 L 9.21875 0 L 7.640625 0 Z M 6.234375 -3.28125 L 4.59375 -7.171875 L 2.9375 -3.28125 Z M 6.234375 -3.28125 "/></g></g></g><g fill="#33443c" fill-opacity="1"><g transform="translate(204.057723, 334.999958)"><g><path d="M 6.703125 0 L 5.09375 -2.65625 C 5.007812 -2.644531 4.878906 -2.640625 4.703125 -2.640625 L 2.625 -2.640625 L 2.625 0 L 1.15625 0 L 1.15625 -8.75 L 4.703125 -8.75 C 5.816406 -8.75 6.679688 -8.488281 7.296875 -7.96875 C 7.910156 -7.445312 8.21875 -6.710938 8.21875 -5.765625 C 8.21875 -5.066406 8.0625 -4.472656 7.75 -3.984375 C 7.4375 -3.503906 6.988281 -3.148438 6.40625 -2.921875 L 8.375 0 Z M 2.625 -3.96875 L 4.703125 -3.96875 C 6.117188 -3.96875 6.828125 -4.550781 6.828125 -5.71875 C 6.828125 -6.851562 6.117188 -7.421875 4.703125 -7.421875 L 2.625 -7.421875 Z M 2.625 -3.96875 "/></g></g></g><g fill="#33443c" fill-opacity="1"><g transform="translate(217.579189, 334.999958)"><g><path d="M 7.40625 -7.421875 L 2.625 -7.421875 L 2.625 -5.0625 L 6.90625 -5.0625 L 6.90625 -3.734375 L 2.625 -3.734375 L 2.625 -1.328125 L 7.546875 -1.328125 L 7.546875 0 L 1.15625 0 L 1.15625 -8.75 L 7.40625 -8.75 Z M 7.40625 -7.421875 "/></g></g></g><g fill="#33443c" fill-opacity="1"><g transform="translate(230.26349, 334.999958)"><g><path d="M 8.734375 0 L 7.28125 0 L 2.625 -6.28125 L 2.625 0 L 1.15625 0 L 1.15625 -8.75 L 2.59375 -8.75 L 7.28125 -2.46875 L 7.28125 -8.75 L 8.734375 -8.75 Z M 8.734375 0 "/></g></g></g><g fill="#33443c" fill-opacity="1"><g transform="translate(244.64711, 334.999958)"><g><path d="M 7.125 -7.421875 L 4.34375 -7.421875 L 4.34375 0 L 2.875 0 L 2.875 -7.421875 L 0.109375 -7.421875 L 0.109375 -8.75 L 7.125 -8.75 Z M 7.125 -7.421875 "/></g></g></g><g fill="#33443c" fill-opacity="1"><g transform="translate(256.369279, 334.999958)"><g><path d="M 6.796875 -1.96875 L 2.390625 -1.96875 L 1.546875 0 L 0.015625 0 L 3.875 -8.75 L 5.390625 -8.75 L 9.21875 0 L 7.640625 0 Z M 6.234375 -3.28125 L 4.59375 -7.171875 L 2.9375 -3.28125 Z M 6.234375 -3.28125 "/></g></g></g><g fill="#33443c" fill-opacity="1"><g transform="translate(270.078155, 334.999958)"><g><path d="M 1.15625 -8.75 L 4.953125 -8.75 C 5.859375 -8.75 6.570312 -8.554688 7.09375 -8.171875 C 7.625 -7.785156 7.890625 -7.25 7.890625 -6.5625 C 7.890625 -6.070312 7.75 -5.648438 7.46875 -5.296875 C 7.195312 -4.953125 6.820312 -4.722656 6.34375 -4.609375 C 6.925781 -4.515625 7.382812 -4.269531 7.71875 -3.875 C 8.050781 -3.476562 8.21875 -2.988281 8.21875 -2.40625 C 8.21875 -1.65625 7.9375 -1.066406 7.375 -0.640625 C 6.8125 -0.210938 6.03125 0 5.03125 0 L 1.15625 0 Z M 2.625 -7.4375 L 2.625 -5.125 L 4.875 -5.125 C 5.34375 -5.125 5.707031 -5.226562 5.96875 -5.4375 C 6.238281 -5.644531 6.375 -5.929688 6.375 -6.296875 C 6.375 -6.660156 6.242188 -6.941406 5.984375 -7.140625 C 5.722656 -7.335938 5.351562 -7.4375 4.875 -7.4375 Z M 2.625 -3.828125 L 2.625 -1.3125 L 4.875 -1.3125 C 5.457031 -1.3125 5.910156 -1.421875 6.234375 -1.640625 C 6.554688 -1.859375 6.71875 -2.175781 6.71875 -2.59375 C 6.71875 -2.96875 6.550781 -3.265625 6.21875 -3.484375 C 5.894531 -3.710938 5.445312 -3.828125 4.875 -3.828125 Z M 2.625 -3.828125 "/></g></g></g><g fill="#33443c" fill-opacity="1"><g transform="translate(283.387204, 334.999958)"><g><path d="M 2.625 0 L 1.15625 0 L 1.15625 -8.75 L 2.625 -8.75 Z M 2.625 0 "/></g></g></g><g fill="#33443c" fill-opacity="1"><g transform="translate(291.648236, 334.999958)"><g><path d="M 2.625 -1.34375 L 6.40625 -1.34375 L 6.40625 0 L 1.15625 0 L 1.15625 -8.75 L 2.625 -8.75 Z M 2.625 -1.34375 "/></g></g></g><g fill="#33443c" fill-opacity="1"><g transform="translate(302.808113, 334.999958)"><g><path d="M 2.625 0 L 1.15625 0 L 1.15625 -8.75 L 2.625 -8.75 Z M 2.625 0 "/></g></g></g><g fill="#33443c" fill-opacity="1"><g transform="translate(311.069144, 334.999958)"><g><path d="M 1.15625 -8.75 L 4.734375 -8.75 C 6.046875 -8.75 7.128906 -8.335938 7.984375 -7.515625 C 8.835938 -6.691406 9.265625 -5.644531 9.265625 -4.375 C 9.265625 -3.101562 8.832031 -2.054688 7.96875 -1.234375 C 7.113281 -0.410156 6.023438 0 4.703125 0 L 1.15625 0 Z M 2.625 -7.421875 L 2.625 -1.328125 L 4.78125 -1.328125 C 5.632812 -1.328125 6.347656 -1.609375 6.921875 -2.171875 C 7.492188 -2.742188 7.78125 -3.472656 7.78125 -4.359375 C 7.78125 -5.242188 7.484375 -5.972656 6.890625 -6.546875 C 6.304688 -7.128906 5.582031 -7.421875 4.71875 -7.421875 Z M 2.625 -7.421875 "/></g></g></g><g fill="#33443c" fill-opacity="1"><g transform="translate(325.240334, 334.999958)"><g><path d="M 6.796875 -1.96875 L 2.390625 -1.96875 L 1.546875 0 L 0.015625 0 L 3.875 -8.75 L 5.390625 -8.75 L 9.21875 0 L 7.640625 0 Z M 6.234375 -3.28125 L 4.59375 -7.171875 L 2.9375 -3.28125 Z M 6.234375 -3.28125 "/></g></g></g><g fill="#33443c" fill-opacity="1"><g transform="translate(338.94921, 334.999958)"><g><path d="M 1.15625 -8.75 L 4.734375 -8.75 C 6.046875 -8.75 7.128906 -8.335938 7.984375 -7.515625 C 8.835938 -6.691406 9.265625 -5.644531 9.265625 -4.375 C 9.265625 -3.101562 8.832031 -2.054688 7.96875 -1.234375 C 7.113281 -0.410156 6.023438 0 4.703125 0 L 1.15625 0 Z M 2.625 -7.421875 L 2.625 -1.328125 L 4.78125 -1.328125 C 5.632812 -1.328125 6.347656 -1.609375 6.921875 -2.171875 C 7.492188 -2.742188 7.78125 -3.472656 7.78125 -4.359375 C 7.78125 -5.242188 7.484375 -5.972656 6.890625 -6.546875 C 6.304688 -7.128906 5.582031 -7.421875 4.71875 -7.421875 Z M 2.625 -7.421875 "/></g></g></g></svg>